<svg width="40" height="40" viewBox="0 0 40 40" fill="none" xmlns="http://www.w3.org/2000/svg">
<circle cx="20" cy="20" r="20" fill="#2B2B2B"/>
<path d="M27.0566 26.5204L21.5441 23.1217L20.0761 23.9693L22.9259 28.9053L18.8196 31.276L10 16L16.4466 12.2781C17.5104 11.6639 18.5876 11.3351 19.6783 11.2916C20.769 11.2482 21.7818 11.4956 22.7167 12.0338C23.6657 12.5639 24.435 13.3395 25.0246 14.3607C25.3686 14.9565 25.6039 15.577 25.7307 16.2225C25.8493 16.8538 25.8542 17.4845 25.7452 18.1147C25.6363 18.745 25.4155 19.3453 25.0829 19.9156L31.4891 23.9613L27.0566 26.5204ZM16.2067 17.2674L18.0738 20.5014L19.9461 19.4204C20.4993 19.101 20.853 18.6982 21.0073 18.212C21.1615 17.7258 21.0994 17.2416 20.821 16.7593C20.6408 16.4473 20.4102 16.2116 20.1292 16.0524C19.8481 15.8932 19.5248 15.8245 19.1592 15.8465C18.8079 15.8602 18.4478 15.9736 18.079 16.1865L16.2067 17.2674Z" fill="#F2F5F5"/>
</svg>
