<svg width="20" height="13" viewBox="0 0 20 13" fill="none" xmlns="http://www.w3.org/2000/svg">
<path d="M1 11V2C1 1.44772 1.44772 1 2 1H11.5C12.0523 1 12.5 1.44771 12.5 2V11C12.5 11.5523 12.0523 12 11.5 12H2C1.44772 12 1 11.5523 1 11Z" fill="#589CFF"/>
<path d="M17.1679 9.25193L15.4056 6.60841C15.164 6.24607 15.1847 5.76907 15.4568 5.42901L17.2191 3.22609C17.8096 2.48795 19 2.9055 19 3.85078V8.69722C19 9.68663 17.7168 10.0752 17.1679 9.25193Z" fill="#589CFF"/>
<path d="M1 11V2C1 1.44772 1.44772 1 2 1H11.5C12.0523 1 12.5 1.44771 12.5 2V11C12.5 11.5523 12.0523 12 11.5 12H2C1.44772 12 1 11.5523 1 11Z" stroke="#589CFF" stroke-linejoin="round"/>
<path d="M17.1679 9.25193L15.4056 6.60841C15.164 6.24607 15.1847 5.76907 15.4568 5.42901L17.2191 3.22609C17.8096 2.48795 19 2.9055 19 3.85078V8.69722C19 9.68663 17.7168 10.0752 17.1679 9.25193Z" stroke="#589CFF" stroke-linejoin="round"/>
</svg>
