<svg width="26" height="31" viewBox="0 0 26 31" fill="none" xmlns="http://www.w3.org/2000/svg">
<path d="M24.9452 14.4967C24.5426 14.0916 24.0542 13.8892 23.479 13.8892H22.7896V9.72224C22.7896 7.06021 21.8413 4.77451 19.9441 2.86475C18.0471 0.954917 15.7767 0 13.1319 0C10.4872 0 8.21645 0.954917 6.31957 2.86467C4.42238 4.77451 3.47409 7.06014 3.47409 9.72224V13.8892H2.78434C2.20965 13.8892 1.7209 14.0916 1.31845 14.4967C0.915994 14.9016 0.714844 15.3936 0.714844 15.9726V28.4727C0.714844 29.0512 0.91607 29.5434 1.31845 29.9486C1.7209 30.3533 2.20965 30.556 2.78434 30.556H23.4796C24.0547 30.556 24.5431 30.3535 24.9457 29.9486C25.3478 29.5434 25.5493 29.0512 25.5493 28.4727V15.9724C25.5496 15.3938 25.3478 14.9019 24.9452 14.4967ZM18.6507 13.8892H7.61323V9.72224C7.61323 8.18874 8.15227 6.87931 9.23013 5.79441C10.3081 4.70937 11.6087 4.16696 13.1322 4.16696C14.6558 4.16696 15.9561 4.70929 17.0341 5.79441C18.1117 6.87923 18.6507 8.18874 18.6507 9.72224V13.8892Z" fill="white"/>
</svg>
