<svg width="60" height="21" viewBox="0 0 60 21" fill="none" xmlns="http://www.w3.org/2000/svg">
<path d="M11.275 20.9102L7.6302 14.1537H5.62072V20.9102H0V0H8.82424C10.2804 0 11.5812 0.300937 12.7267 0.902811C13.8722 1.50468 14.7653 2.35896 15.406 3.46563C16.0661 4.5723 16.3962 5.82458 16.3962 7.22248C16.3962 8.03792 16.27 8.81453 16.0176 9.55231C15.7652 10.2707 15.3963 10.9211 14.9109 11.5035C14.4255 12.086 13.8431 12.5714 13.1636 12.9597L17.3423 20.9102H11.275ZM5.62072 4.98002V9.4067H8.18354C8.94073 9.4067 9.5426 9.20284 9.98916 8.79512C10.4357 8.3874 10.659 7.85348 10.659 7.19336C10.659 6.76622 10.5619 6.38762 10.3678 6.05756C10.1736 5.72751 9.88237 5.4654 9.49407 5.27125C9.12518 5.07709 8.68833 4.98002 8.18354 4.98002H5.62072Z" fill="#2B2B2B"/>
<path d="M25.2723 15.5225H32.9608V20.9102H19.6807V0H32.7278V4.86352H25.2723V7.86318H31.9706V12.4646H25.2723V15.5225Z" fill="#2B2B2B"/>
<path d="M42.6407 20.9102C40.2915 20.9102 38.3791 20.2113 36.9035 18.8134C35.4279 17.4155 34.6902 15.6099 34.6902 13.3965V12.5811H40.34V13.1053C40.34 13.8819 40.5439 14.5032 40.9516 14.9692C41.3787 15.4351 41.9418 15.6681 42.6407 15.6681C43.3202 15.6681 43.8639 15.4351 44.2716 14.9692C44.6987 14.5032 44.9123 13.8819 44.9123 13.1053V0H50.5621V13.3965C50.5621 15.6099 49.8341 17.4155 48.3779 18.8134C46.9218 20.2113 45.0094 20.9102 42.6407 20.9102Z" fill="#2B2B2B"/>
<path d="M56.9312 17.0389H54.321V10.4408V7.83057V6.52548V0H60V6.52548V7.83057V10.4408L57.2851 14.356H60L59.4593 15.6611L56.9312 20.8815V17.0389Z" fill="#2B2B2B"/>
</svg>
